<svg xmlns="http://www.w3.org/2000/svg" width="1440" height="900" viewBox="0 0 1440 900"><rect width="1440" height="900" fill="#0d0f12"/><rect x="0" y="0" width="1440" height="44" fill="#171a1f"/><line x1="0" y1="44" x2="1440" y2="44" stroke="#2a2d33"/><text x="28" y="27" font-family="system-ui, 'Segoe UI', sans-serif" font-size="10" letter-spacing="1.2" fill="#8a8272" text-anchor="start">NOTES</text><circle cx="88" cy="23" r="4" fill="#ffb000"/><circle cx="88" cy="23" r="7" fill="#ffb000" opacity="0.18"/><text x="128" y="27" font-family="system-ui, 'Segoe UI', sans-serif" font-size="10" letter-spacing="1.2" fill="#8a8272" text-anchor="start">RESEARCH</text><text x="240" y="27" font-family="system-ui, 'Segoe UI', sans-serif" font-size="10" letter-spacing="1.2" fill="#8a8272" text-anchor="start">REVIEW</text><text x="1110" y="27" font-family="system-ui, 'Segoe UI', sans-serif" font-size="10" letter-spacing="1.2" fill="#8a8272" text-anchor="end">SYNC</text><circle cx="1122" cy="23" r="3" fill="#5a9e6f"/><circle cx="1122" cy="23" r="6" fill="#5a9e6f" opacity="0.18"/><rect x="0" y="44" width="240" height="856" fill="#171a1f"/><line x1="240" y1="44" x2="240" y2="900" stroke="#2a2d33"/><text x="20" y="72" font-family="system-ui, 'Segoe UI', sans-serif" font-size="10" letter-spacing="1.2" fill="#8a8272" text-anchor="start">FILE RAIL</text><text x="24" y="96" font-family="ui-monospace, 'Cascadia Code', Consolas, monospace" font-size="10" fill="#8a8272" text-anchor="start" letter-spacing="0">ai-inference.md</text><text x="24" y="126" font-family="ui-monospace, 'Cascadia Code', Consolas, monospace" font-size="10" fill="#8a8272" text-anchor="start" letter-spacing="0">ai-training.md</text><rect x="12" y="142" width="216" height="24" fill="#ffb000" opacity="0.12"/><rect x="12" y="142" width="2" height="24" fill="#ffb000"/><text x="24" y="156" font-family="ui-monospace, 'Cascadia Code', Consolas, monospace" font-size="10" fill="#e8dcc4" text-anchor="start" letter-spacing="0">garden-log.md</text><text x="24" y="186" font-family="ui-monospace, 'Cascadia Code', Consolas, monospace" font-size="10" fill="#8a8272" text-anchor="start" letter-spacing="0">hal-setup.md</text><text x="24" y="216" font-family="ui-monospace, 'Cascadia Code', Consolas, monospace" font-size="10" fill="#8a8272" text-anchor="start" letter-spacing="0">journal-0910.md</text><text x="24" y="246" font-family="ui-monospace, 'Cascadia Code', Consolas, monospace" font-size="10" fill="#8a8272" text-anchor="start" letter-spacing="0">journal-0911.md</text><text x="24" y="276" font-family="ui-monospace, 'Cascadia Code', Consolas, monospace" font-size="10" fill="#8a8272" text-anchor="start" letter-spacing="0">rfq-notes.md</text><text x="24" y="306" font-family="ui-monospace, 'Cascadia Code', Consolas, monospace" font-size="10" fill="#8a8272" text-anchor="start" letter-spacing="0">sensors.md</text><text x="24" y="336" font-family="ui-monospace, 'Cascadia Code', Consolas, monospace" font-size="10" fill="#8a8272" text-anchor="start" letter-spacing="0">vault.md</text><rect x="240" y="44" width="860" height="856" fill="#0d0f12"/><line x1="360" y1="60" x2="360" y2="880" stroke="#2a2d33" opacity="0.25"/><line x1="480" y1="60" x2="480" y2="880" stroke="#2a2d33" opacity="0.25"/><line x1="600" y1="60" x2="600" y2="880" stroke="#2a2d33" opacity="0.25"/><line x1="720" y1="60" x2="720" y2="880" stroke="#2a2d33" opacity="0.25"/><line x1="840" y1="60" x2="840" y2="880" stroke="#2a2d33" opacity="0.25"/><line x1="960" y1="60" x2="960" y2="880" stroke="#2a2d33" opacity="0.25"/><text x="300" y="110" font-family="ui-monospace, 'Cascadia Code', Consolas, monospace" font-size="48" fill="#e8dcc4" text-anchor="start" letter-spacing="2">AI INFERENCE</text><text x="300" y="140" font-family="ui-monospace, 'Cascadia Code', Consolas, monospace" font-size="20" fill="#8a8272" text-anchor="start" letter-spacing="4">CATALOG ENTRY 004</text><text x="300" y="166" font-family="system-ui, 'Segoe UI', sans-serif" font-size="9" letter-spacing="1.2" fill="#8a8272" text-anchor="start">MODIFIED 09-11 14:02 · 412 WORDS · SYNCED</text><rect x="300" y="200" width="560" height="9" rx="2" fill="#c9c2b2" opacity="0.35"/><rect x="300" y="226" width="560" height="9" rx="2" fill="#c9c2b2" opacity="0.35"/><rect x="300" y="252" width="347" height="9" rx="2" fill="#c9c2b2" opacity="0.35"/><rect x="300" y="278" width="560" height="9" rx="2" fill="#c9c2b2" opacity="0.35"/><rect x="300" y="304" width="560" height="9" rx="2" fill="#c9c2b2" opacity="0.35"/><rect x="300" y="330" width="560" height="9" rx="2" fill="#c9c2b2" opacity="0.35"/><rect x="300" y="356" width="347" height="9" rx="2" fill="#c9c2b2" opacity="0.35"/><rect x="300" y="382" width="560" height="9" rx="2" fill="#c9c2b2" opacity="0.35"/><rect x="300" y="408" width="560" height="9" rx="2" fill="#c9c2b2" opacity="0.35"/><circle cx="300" cy="184" r="3" fill="#ffb000"/><circle cx="300" cy="184" r="6" fill="#ffb000" opacity="0.18"/><rect x="1100" y="44" width="340" height="856" fill="#171a1f"/><line x1="1100" y1="44" x2="1100" y2="900" stroke="#2a2d33"/><circle cx="1270" cy="104" r="26" fill="none" stroke="#ffb000" stroke-width="2"/><circle cx="1270" cy="104" r="16" fill="#ffb000" opacity="0.15"/><circle cx="1270" cy="104" r="6" fill="#ffb000"/><text x="1270" y="160" font-family="system-ui, 'Segoe UI', sans-serif" font-size="10" letter-spacing="1.2" fill="#8a8272" text-anchor="middle">HAL — OBSERVER READY</text><rect x="1130" y="200" width="260" height="8" rx="2" fill="#c9c2b2" opacity="0.35"/><rect x="1130" y="224" width="260" height="8" rx="2" fill="#c9c2b2" opacity="0.35"/><rect x="1130" y="248" width="161" height="8" rx="2" fill="#c9c2b2" opacity="0.35"/><rect x="1130" y="272" width="260" height="8" rx="2" fill="#c9c2b2" opacity="0.35"/><rect x="1130" y="296" width="260" height="8" rx="2" fill="#c9c2b2" opacity="0.35"/><rect x="1130" y="320" width="161" height="8" rx="2" fill="#c9c2b2" opacity="0.35"/><rect x="1130" y="344" width="260" height="8" rx="2" fill="#c9c2b2" opacity="0.35"/><rect x="1120" y="820" width="280" height="1" fill="#2a2d33"/><rect x="1120" y="840" width="280" height="30" fill="none" stroke="#2a2d33"/><text x="1260" y="860" font-family="system-ui, 'Segoe UI', sans-serif" font-size="10" letter-spacing="1.2" fill="#ffb000" text-anchor="middle">ASK</text><text x="20" y="882" font-family="system-ui, 'Segoe UI', sans-serif" font-size="9" letter-spacing="1.2" fill="#8a8272" text-anchor="start">HAL NOTES · PLATE 01 · ALL SYSTEMS NOMINAL</text></svg>